<svg xmlns="http://www.w3.org/2000/svg" width="24" height="24" viewBox="0 0 24 24" fill="none" class="injected-svg" data-src="https://cdn.hugeicons.com/icons/pause-stroke-standard.svg" xmlns:xlink="http://www.w3.org/1999/xlink" role="img" color="#ffffff">
<path d="M5 20H9C9.55228 20 10 19.5523 10 19V5C10 4.44772 9.55228 4 9 4H5C4.44772 4 4 4.44772 4 5V19C4 19.5523 4.44772 20 5 20Z" stroke="#ffffff" stroke-width="1.5" stroke-linejoin="round"></path>
<path d="M15 20H19C19.5523 20 20 19.5523 20 19V5C20 4.44772 19.5523 4 19 4H15C14.4477 4 14 4.44772 14 5V19C14 19.5523 14.4477 20 15 20Z" stroke="#ffffff" stroke-width="1.5" stroke-linejoin="round"></path>
</svg>